<svg xmlns="http://www.w3.org/2000/svg" xmlns:xlink="http://www.w3.org/1999/xlink" width="500" zoomAndPan="magnify" viewBox="0 0 375 374.999991" height="500" preserveAspectRatio="xMidYMid meet" version="1.0"><defs><clipPath id="8b6e06b27c"><path d="M 112.5 100.679688 L 262.5 100.679688 L 262.5 180.179688 L 112.5 180.179688 Z M 112.5 100.679688 " clip-rule="nonzero"/></clipPath></defs><g clip-path="url(#8b6e06b27c)"><path fill="#000000" d="M 187.5 180.25 C 184.796875 180.148438 181.921875 179.449219 176.644531 178.128906 L 167.957031 147.039062 C 135.984375 143.796875 112.511719 133.085938 112.511719 120.367188 C 112.511719 112.664062 121.125 105.699219 135.027344 100.679688 C 125.28125 104.625 119.429688 109.675781 119.429688 115.179688 C 119.429688 126.46875 144.050781 135.851562 176.417969 137.714844 L 177.703125 147.777344 L 179.804688 164.242188 L 177.621094 169.839844 C 180.085938 171.257812 183.839844 171.917969 187.5 171.824219 C 191.160156 171.917969 194.914062 171.257812 197.378906 169.839844 L 195.199219 164.242188 L 197.296875 147.777344 L 198.585938 137.714844 C 230.949219 135.851562 255.570312 126.46875 255.570312 115.179688 C 255.570312 109.675781 249.71875 104.625 239.972656 100.679688 C 253.875 105.699219 262.488281 112.664062 262.488281 120.367188 C 262.488281 133.085938 239.015625 143.796875 207.042969 147.039062 L 198.355469 178.128906 C 193.078125 179.449219 190.203125 180.148438 187.5 180.25 " fill-opacity="1" fill-rule="evenodd"/></g></svg>