<svg xmlns="http://www.w3.org/2000/svg" xmlns:xlink="http://www.w3.org/1999/xlink" width="500" zoomAndPan="magnify" viewBox="0 0 375 374.999991" height="500" preserveAspectRatio="xMidYMid meet" version="1.0"><defs><clipPath id="bb0bfd5260"><path d="M 284 176 L 349.027344 176 L 349.027344 194 L 284 194 Z M 284 176 " clip-rule="nonzero"/></clipPath><clipPath id="11aecc9739"><path d="M 25.777344 176 L 91 176 L 91 194 L 25.777344 194 Z M 25.777344 176 " clip-rule="nonzero"/></clipPath><clipPath id="13147f6f39"><path d="M 87 169 L 287 169 L 287 253.058594 L 87 253.058594 Z M 87 169 " clip-rule="nonzero"/></clipPath><clipPath id="2c95fc9f59"><path d="M 96 121.808594 L 277 121.808594 L 277 202 L 96 202 Z M 96 121.808594 " clip-rule="nonzero"/></clipPath></defs><g clip-path="url(#bb0bfd5260)"><path fill="#a80007" d="M 349.027344 176.808594 L 337.453125 189.472656 C 335.296875 191.832031 332.367188 193.164062 329.3125 193.164062 L 284.699219 193.164062 L 291.585938 176.808594 Z M 349.027344 176.808594 " fill-opacity="1" fill-rule="nonzero"/></g><path fill="#a80007" d="M 327.25 195.222656 L 315.679688 207.882812 C 313.515625 210.246094 310.585938 211.574219 307.53125 211.574219 L 276.945312 211.574219 L 283.835938 195.222656 Z M 327.25 195.222656 " fill-opacity="1" fill-rule="nonzero"/><path fill="#a80007" d="M 301.84375 213.640625 L 290.269531 226.296875 C 288.105469 228.660156 285.175781 229.992188 282.121094 229.992188 L 269.160156 229.992188 C 269.296875 229.714844 269.417969 229.4375 269.539062 229.15625 L 276.074219 213.640625 Z M 301.84375 213.640625 " fill-opacity="1" fill-rule="nonzero"/><g clip-path="url(#11aecc9739)"><path fill="#a80007" d="M 90.097656 193.164062 L 45.492188 193.164062 C 42.4375 193.164062 39.507812 191.832031 37.351562 189.472656 L 25.777344 176.808594 L 83.210938 176.808594 Z M 90.097656 193.164062 " fill-opacity="1" fill-rule="nonzero"/></g><path fill="#a80007" d="M 97.859375 211.578125 L 67.273438 211.578125 C 64.21875 211.578125 61.289062 210.25 59.125 207.886719 L 47.550781 195.222656 L 90.96875 195.222656 L 97.855469 211.578125 Z M 97.859375 211.578125 " fill-opacity="1" fill-rule="nonzero"/><path fill="#a80007" d="M 105.640625 229.992188 L 92.675781 229.992188 C 89.625 229.992188 86.695312 228.660156 84.535156 226.296875 L 72.960938 213.640625 L 98.726562 213.640625 L 105.265625 229.160156 C 105.386719 229.4375 105.507812 229.71875 105.640625 229.992188 Z M 105.640625 229.992188 " fill-opacity="1" fill-rule="nonzero"/><g clip-path="url(#13147f6f39)"><path fill="#1e1e1e" d="M 245.578125 169.839844 C 243.238281 169.800781 240.980469 170.847656 239.324219 172.75 L 234.765625 177.984375 C 233.140625 179.847656 230.9375 180.894531 228.640625 180.894531 L 146.160156 180.894531 C 143.863281 180.894531 141.664062 179.847656 140.039062 177.984375 L 135.476562 172.75 C 133.824219 170.847656 131.566406 169.796875 129.226562 169.839844 L 87.828125 170.550781 L 111.421875 226.570312 C 112.898438 230.078125 115.660156 232.648438 118.953125 233.585938 L 187.398438 253.046875 L 255.847656 233.585938 C 259.140625 232.648438 261.898438 230.078125 263.378906 226.570312 L 286.972656 170.550781 L 245.574219 169.839844 Z M 245.578125 169.839844 " fill-opacity="1" fill-rule="nonzero"/></g><g clip-path="url(#2c95fc9f59)"><path fill="#1e1e1e" d="M 266.613281 176.289062 C 267.238281 177.339844 268.5625 177.753906 269.644531 177.175781 C 272.78125 175.507812 277.8125 171.417969 276.59375 162.699219 L 276.175781 160.246094 C 276.175781 160.246094 278.996094 149.214844 273.957031 148.015625 C 268.921875 146.816406 257.945312 153.351562 249.070312 138.785156 C 240.195312 124.21875 226.75 121.824219 200.121094 121.824219 C 173.492188 121.824219 159.425781 121.542969 155.863281 138.226562 C 135.234375 140.476562 128.386719 140.195312 122.292969 146.195312 C 106.632812 142.539062 98.371094 147.628906 98.371094 153.523438 C 98.371094 159.417969 102.886719 158.410156 102.886719 164.300781 C 99.0625 165.472656 100.761719 170.886719 100.761719 170.886719 C 100.761719 170.886719 96.09375 170.765625 96.09375 176.113281 C 96.09375 181.464844 99.410156 187.90625 110.492188 186.058594 C 111.585938 192.425781 115.414062 199.863281 126.761719 199.386719 C 137.65625 198.929688 140.550781 187.695312 140.550781 187.695312 L 181.738281 187.851562 C 181.738281 187.851562 183.199219 201.058594 198.578125 201.894531 C 215.867188 202.839844 218.324219 185.75 218.324219 185.75 L 248.8125 180.707031 C 248.8125 180.707031 250.160156 187.777344 256.589844 187.644531 C 263.457031 187.5 265.421875 179.867188 265.351562 174.894531 C 265.917969 175.304688 266.324219 175.800781 266.613281 176.289062 Z M 266.613281 176.289062 " fill-opacity="1" fill-rule="nonzero"/></g><path fill="#cc9966" d="M 204.023438 181.003906 C 204.023438 181.554688 203.953125 182.082031 203.816406 182.589844 C 203.679688 183.09375 203.480469 183.542969 203.226562 183.929688 C 202.972656 184.320312 202.675781 184.617188 202.34375 184.828125 C 202.011719 185.039062 201.664062 185.144531 201.300781 185.144531 C 200.941406 185.144531 200.59375 185.039062 200.261719 184.828125 C 199.925781 184.617188 199.632812 184.320312 199.375 183.929688 C 199.121094 183.542969 198.925781 183.09375 198.785156 182.589844 C 198.648438 182.082031 198.578125 181.554688 198.578125 181.003906 C 198.578125 180.457031 198.648438 179.925781 198.785156 179.421875 C 198.925781 178.914062 199.121094 178.464844 199.375 178.078125 C 199.632812 177.6875 199.925781 177.390625 200.261719 177.179688 C 200.59375 176.96875 200.941406 176.863281 201.300781 176.863281 C 201.664062 176.863281 202.011719 176.96875 202.34375 177.179688 C 202.675781 177.390625 202.972656 177.6875 203.226562 178.078125 C 203.480469 178.464844 203.679688 178.914062 203.816406 179.421875 C 203.953125 179.925781 204.023438 180.457031 204.023438 181.003906 Z M 204.023438 181.003906 " fill-opacity="1" fill-rule="nonzero"/><path fill="#cc9966" d="M 190.460938 181.414062 C 190.460938 189.988281 195.332031 196.9375 201.339844 196.9375 C 207.347656 196.9375 212.214844 189.988281 212.214844 181.414062 C 212.214844 172.84375 207.347656 165.894531 201.339844 165.894531 C 195.332031 165.894531 190.460938 172.84375 190.460938 181.414062 Z M 192.160156 181.691406 C 192.160156 174.695312 195.839844 169.023438 200.382812 169.023438 C 204.925781 169.023438 208.609375 174.695312 208.609375 181.691406 C 208.609375 188.6875 204.925781 194.359375 200.382812 194.359375 C 195.839844 194.359375 192.160156 188.6875 192.160156 181.691406 Z M 192.160156 181.691406 " fill-opacity="1" fill-rule="nonzero"/><path fill="#cc9966" d="M 217.707031 174.554688 C 217.707031 174.554688 218.714844 178.113281 218.097656 182.691406 L 239.789062 176.199219 L 219.949219 179.035156 C 219.949219 179.035156 219.441406 176.417969 217.707031 174.558594 Z M 217.707031 174.554688 " fill-opacity="1" fill-rule="nonzero"/><path fill="#ebedea" d="M 183.199219 166.835938 C 183.199219 167.167969 183.140625 167.484375 183.023438 167.792969 C 182.90625 168.097656 182.742188 168.371094 182.523438 168.605469 C 182.308594 168.839844 182.058594 169.019531 181.773438 169.148438 C 181.488281 169.273438 181.195312 169.339844 180.886719 169.339844 C 180.582031 169.339844 180.285156 169.273438 180.003906 169.148438 C 179.71875 169.019531 179.46875 168.839844 179.253906 168.605469 C 179.035156 168.371094 178.871094 168.097656 178.753906 167.792969 C 178.636719 167.484375 178.578125 167.167969 178.578125 166.835938 C 178.578125 166.503906 178.636719 166.183594 178.753906 165.875 C 178.871094 165.570312 179.035156 165.300781 179.253906 165.0625 C 179.46875 164.828125 179.71875 164.648438 180.003906 164.519531 C 180.285156 164.394531 180.582031 164.332031 180.886719 164.332031 C 181.195312 164.332031 181.488281 164.394531 181.773438 164.519531 C 182.058594 164.648438 182.308594 164.828125 182.523438 165.0625 C 182.742188 165.300781 182.90625 165.570312 183.023438 165.875 C 183.140625 166.183594 183.199219 166.503906 183.199219 166.835938 Z M 183.199219 166.835938 " fill-opacity="1" fill-rule="nonzero"/><path fill="#ebedea" d="M 108.625 164.332031 C 108.625 164.664062 108.5625 164.980469 108.445312 165.289062 C 108.328125 165.59375 108.164062 165.867188 107.945312 166.101562 C 107.730469 166.335938 107.480469 166.515625 107.195312 166.644531 C 106.914062 166.769531 106.617188 166.835938 106.3125 166.835938 C 106.003906 166.835938 105.710938 166.769531 105.425781 166.644531 C 105.144531 166.515625 104.894531 166.335938 104.675781 166.101562 C 104.460938 165.867188 104.292969 165.59375 104.175781 165.289062 C 104.058594 164.980469 104 164.664062 104 164.332031 C 104 164 104.058594 163.679688 104.175781 163.371094 C 104.292969 163.066406 104.460938 162.796875 104.675781 162.558594 C 104.894531 162.324219 105.144531 162.144531 105.425781 162.015625 C 105.710938 161.890625 106.003906 161.828125 106.3125 161.828125 C 106.617188 161.828125 106.914062 161.890625 107.195312 162.015625 C 107.480469 162.144531 107.730469 162.324219 107.945312 162.558594 C 108.164062 162.796875 108.328125 163.066406 108.445312 163.371094 C 108.5625 163.679688 108.625 164 108.625 164.332031 Z M 108.625 164.332031 " fill-opacity="1" fill-rule="nonzero"/><path fill="#ebedea" d="M 185.769531 155.757812 C 185.769531 156.089844 185.738281 156.421875 185.679688 156.75 C 185.621094 157.078125 185.53125 157.394531 185.414062 157.703125 C 185.292969 158.011719 185.148438 158.304688 184.980469 158.582031 C 184.808594 158.859375 184.613281 159.117188 184.394531 159.355469 C 184.175781 159.589844 183.941406 159.800781 183.683594 159.984375 C 183.425781 160.171875 183.15625 160.328125 182.871094 160.457031 C 182.585938 160.582031 182.292969 160.679688 181.992188 160.746094 C 181.6875 160.808594 181.382812 160.84375 181.074219 160.84375 C 180.765625 160.84375 180.460938 160.808594 180.160156 160.746094 C 179.859375 160.679688 179.5625 160.582031 179.277344 160.457031 C 178.996094 160.328125 178.722656 160.171875 178.46875 159.984375 C 178.210938 159.800781 177.972656 159.589844 177.757812 159.355469 C 177.539062 159.117188 177.34375 158.859375 177.171875 158.582031 C 177 158.304688 176.855469 158.011719 176.738281 157.703125 C 176.621094 157.394531 176.53125 157.078125 176.472656 156.75 C 176.410156 156.421875 176.382812 156.089844 176.382812 155.757812 C 176.382812 155.425781 176.410156 155.09375 176.472656 154.765625 C 176.53125 154.4375 176.621094 154.121094 176.738281 153.8125 C 176.855469 153.503906 177 153.210938 177.171875 152.933594 C 177.34375 152.65625 177.539062 152.398438 177.757812 152.160156 C 177.972656 151.925781 178.210938 151.714844 178.46875 151.53125 C 178.722656 151.34375 178.996094 151.1875 179.277344 151.058594 C 179.5625 150.933594 179.859375 150.835938 180.160156 150.769531 C 180.460938 150.707031 180.765625 150.671875 181.074219 150.671875 C 181.382812 150.671875 181.6875 150.707031 181.992188 150.769531 C 182.292969 150.835938 182.585938 150.933594 182.871094 151.058594 C 183.15625 151.1875 183.425781 151.34375 183.683594 151.53125 C 183.941406 151.714844 184.175781 151.925781 184.394531 152.160156 C 184.613281 152.398438 184.808594 152.65625 184.980469 152.933594 C 185.148438 153.210938 185.292969 153.503906 185.414062 153.8125 C 185.53125 154.121094 185.621094 154.4375 185.679688 154.765625 C 185.738281 155.09375 185.769531 155.425781 185.769531 155.757812 Z M 185.769531 155.757812 " fill-opacity="1" fill-rule="nonzero"/><path fill="#1e1e1e" d="M 180.363281 159.234375 C 182.078125 159.234375 183.46875 157.730469 183.46875 155.871094 C 183.46875 154.011719 182.078125 152.507812 180.363281 152.507812 C 179.710938 152.507812 179.105469 152.726562 178.605469 153.097656 C 179.234375 152.453125 180.085938 152.058594 181.023438 152.058594 C 182.96875 152.058594 184.542969 153.765625 184.542969 155.871094 C 184.542969 157.976562 182.964844 159.683594 181.023438 159.683594 C 180.085938 159.683594 179.234375 159.289062 178.605469 158.644531 C 179.105469 159.015625 179.710938 159.234375 180.363281 159.234375 Z M 180.363281 159.234375 " fill-opacity="1" fill-rule="nonzero"/><path fill="#ebedea" d="M 111.003906 153.757812 C 111.003906 154.09375 110.976562 154.421875 110.914062 154.75 C 110.855469 155.078125 110.765625 155.394531 110.648438 155.703125 C 110.53125 156.011719 110.386719 156.304688 110.214844 156.582031 C 110.042969 156.859375 109.847656 157.117188 109.628906 157.355469 C 109.414062 157.589844 109.175781 157.800781 108.917969 157.984375 C 108.664062 158.171875 108.390625 158.328125 108.105469 158.457031 C 107.824219 158.585938 107.527344 158.679688 107.226562 158.746094 C 106.925781 158.8125 106.617188 158.84375 106.3125 158.84375 C 106.003906 158.84375 105.699219 158.8125 105.394531 158.746094 C 105.09375 158.679688 104.800781 158.585938 104.515625 158.457031 C 104.230469 158.328125 103.960938 158.171875 103.703125 157.984375 C 103.445312 157.800781 103.210938 157.589844 102.992188 157.355469 C 102.773438 157.117188 102.578125 156.859375 102.40625 156.582031 C 102.238281 156.304688 102.09375 156.011719 101.972656 155.703125 C 101.855469 155.394531 101.765625 155.078125 101.707031 154.75 C 101.648438 154.421875 101.617188 154.09375 101.617188 153.757812 C 101.617188 153.425781 101.648438 153.09375 101.707031 152.765625 C 101.765625 152.4375 101.855469 152.121094 101.972656 151.8125 C 102.09375 151.503906 102.238281 151.210938 102.40625 150.933594 C 102.578125 150.65625 102.773438 150.398438 102.992188 150.164062 C 103.210938 149.925781 103.445312 149.714844 103.703125 149.53125 C 103.960938 149.34375 104.230469 149.1875 104.515625 149.058594 C 104.800781 148.933594 105.09375 148.835938 105.394531 148.769531 C 105.699219 148.707031 106.003906 148.671875 106.3125 148.671875 C 106.617188 148.671875 106.925781 148.707031 107.226562 148.769531 C 107.527344 148.835938 107.824219 148.933594 108.105469 149.058594 C 108.390625 149.1875 108.664062 149.34375 108.917969 149.53125 C 109.175781 149.714844 109.414062 149.925781 109.628906 150.164062 C 109.847656 150.398438 110.042969 150.65625 110.214844 150.933594 C 110.386719 151.210938 110.53125 151.503906 110.648438 151.8125 C 110.765625 152.121094 110.855469 152.4375 110.914062 152.765625 C 110.976562 153.09375 111.003906 153.425781 111.003906 153.757812 Z M 111.003906 153.757812 " fill-opacity="1" fill-rule="nonzero"/><path fill="#1e1e1e" d="M 105.597656 157.234375 C 107.3125 157.234375 108.703125 155.730469 108.703125 153.871094 C 108.703125 152.011719 107.3125 150.507812 105.597656 150.507812 C 104.945312 150.507812 104.339844 150.726562 103.839844 151.097656 C 104.472656 150.453125 105.320312 150.058594 106.257812 150.058594 C 108.203125 150.058594 109.777344 151.765625 109.777344 153.871094 C 109.777344 155.976562 108.203125 157.6875 106.257812 157.6875 C 105.320312 157.6875 104.472656 157.289062 103.839844 156.644531 C 104.339844 157.015625 104.945312 157.234375 105.597656 157.234375 Z M 105.597656 157.234375 " fill-opacity="1" fill-rule="nonzero"/><path fill="#cc9966" d="M 260.742188 176.433594 C 260.742188 177.042969 260.675781 177.632812 260.546875 178.199219 C 260.417969 178.761719 260.230469 179.261719 259.988281 179.695312 C 259.75 180.128906 259.472656 180.460938 259.15625 180.695312 C 258.839844 180.929688 258.515625 181.046875 258.171875 181.046875 C 257.832031 181.046875 257.503906 180.929688 257.191406 180.695312 C 256.875 180.460938 256.597656 180.128906 256.355469 179.695312 C 256.117188 179.261719 255.929688 178.761719 255.800781 178.199219 C 255.667969 177.632812 255.605469 177.042969 255.605469 176.433594 C 255.605469 175.820312 255.667969 175.234375 255.800781 174.667969 C 255.929688 174.101562 256.117188 173.601562 256.355469 173.171875 C 256.597656 172.738281 256.875 172.40625 257.191406 172.171875 C 257.503906 171.9375 257.832031 171.820312 258.171875 171.820312 C 258.515625 171.820312 258.839844 171.9375 259.15625 172.171875 C 259.472656 172.40625 259.75 172.738281 259.988281 173.171875 C 260.230469 173.601562 260.417969 174.101562 260.546875 174.667969 C 260.675781 175.234375 260.742188 175.820312 260.742188 176.433594 Z M 260.742188 176.433594 " fill-opacity="1" fill-rule="nonzero"/><path fill="#cc9966" d="M 262.777344 175.488281 C 262.777344 171.398438 261.238281 167.859375 259 166.164062 C 261.863281 167.207031 263.992188 171.164062 263.992188 175.882812 C 263.992188 181.398438 261.082031 185.867188 257.496094 185.867188 C 257.257812 185.867188 257.023438 185.847656 256.792969 185.808594 C 260.160156 185.21875 262.777344 180.824219 262.777344 175.488281 Z M 262.777344 175.488281 " fill-opacity="1" fill-rule="nonzero"/><path fill="#cc9966" d="M 172.59375 179.597656 C 172.59375 179.597656 171.535156 182.300781 157.949219 182.300781 C 144.363281 182.300781 129.210938 181.945312 121.96875 181.59375 C 114.726562 181.242188 114.921875 178.472656 114.921875 176.617188 C 114.921875 174.757812 119.066406 174.226562 128.148438 174.226562 C 137.230469 174.226562 159.621094 173.710938 163.339844 175.042969 C 167.0625 176.378906 167.527344 179.484375 172.589844 179.601562 Z M 172.59375 179.597656 " fill-opacity="1" fill-rule="nonzero"/><path fill="#cc9966" d="M 185.144531 179.433594 C 185.144531 182.054688 183.015625 184.183594 180.394531 184.183594 C 177.769531 184.183594 175.644531 182.054688 175.644531 179.433594 Z M 185.144531 179.433594 " fill-opacity="1" fill-rule="nonzero"/><path fill="#cc9966" d="M 109.78125 177.058594 C 109.78125 179.679688 107.652344 181.808594 105.03125 181.808594 C 102.40625 181.808594 100.277344 179.679688 100.277344 177.058594 Z M 109.78125 177.058594 " fill-opacity="1" fill-rule="nonzero"/><path fill="#cc9966" d="M 215.398438 146.800781 C 215.398438 146.800781 186.335938 143.289062 172.894531 152.347656 C 172.894531 152.347656 170.519531 151.664062 171.519531 148.289062 C 172.519531 144.914062 168.832031 141.226562 130.386719 145.664062 C 130.386719 145.664062 165.132812 133.945312 215.398438 146.800781 Z M 215.398438 146.800781 " fill-opacity="1" fill-rule="nonzero"/><path fill="#cc9966" d="M 216.628906 140.1875 C 216.628906 140.1875 186.765625 137.054688 161.78125 138.238281 C 165.332031 127.523438 166.890625 126.929688 187.046875 126.550781 C 204.164062 126.226562 215.027344 124.949219 216.628906 140.1875 Z M 216.628906 140.1875 " fill-opacity="1" fill-rule="nonzero"/><path fill="#1e1e1e" d="M 214.335938 138.785156 L 214.3125 138.785156 C 213.441406 138.664062 212.757812 137.992188 212.609375 137.125 C 212.183594 134.683594 210.179688 129.855469 201.101562 128.515625 C 201.101562 128.515625 213.550781 127.714844 214.332031 138.785156 Z M 214.335938 138.785156 " fill-opacity="1" fill-rule="nonzero"/><path fill="#cc9966" d="M 248.730469 145.046875 L 231.5625 145.394531 L 241.746094 144.046875 L 229.867188 144.25 C 229.867188 144.25 226.375 140.308594 225.777344 134.023438 C 241.644531 133.875 242.992188 134.621094 248.730469 145.046875 Z M 248.730469 145.046875 " fill-opacity="1" fill-rule="nonzero"/><path fill="#ebedea" d="M 225.773438 157.5625 L 184.546875 157.976562 L 184.878906 154.105469 Z M 225.773438 157.5625 " fill-opacity="1" fill-rule="nonzero"/><path fill="#ebedea" d="M 127.953125 167.144531 C 123.8125 166.179688 121.207031 164.792969 121.207031 163.242188 C 121.207031 163.027344 121.261719 162.8125 121.359375 162.597656 C 121.980469 161.296875 124.457031 160.140625 128.09375 159.3125 C 128.269531 159.984375 128.433594 160.839844 128.511719 161.835938 C 128.625 163.335938 128.53125 165.152344 127.953125 167.144531 Z M 127.953125 167.144531 " fill-opacity="1" fill-rule="nonzero"/><path fill="#ebedea" d="M 132.726562 167.976562 C 131.835938 167.867188 130.980469 167.738281 130.167969 167.59375 C 130.519531 165.96875 130.859375 163.824219 130.820312 161.699219 C 130.800781 160.722656 130.703125 159.75 130.492188 158.839844 C 131.351562 158.695312 132.257812 158.566406 133.203125 158.457031 C 133.425781 159.226562 133.664062 160.300781 133.738281 161.59375 C 133.84375 163.375 133.65625 165.574219 132.726562 167.976562 Z M 132.726562 167.976562 " fill-opacity="1" fill-rule="nonzero"/><path fill="#ebedea" d="M 137.5625 168.402344 C 136.726562 168.355469 135.914062 168.300781 135.121094 168.230469 C 135.523438 166.640625 136.039062 164.097656 136.039062 161.550781 C 136.039062 160.414062 135.9375 159.273438 135.671875 158.210938 C 136.566406 158.140625 137.488281 158.085938 138.433594 158.046875 C 138.679688 158.894531 138.925781 160.101562 138.96875 161.550781 C 139.027344 163.480469 138.726562 165.847656 137.558594 168.402344 Z M 137.5625 168.402344 " fill-opacity="1" fill-rule="nonzero"/><path fill="#ebedea" d="M 149.875 168.085938 C 149.101562 168.171875 148.300781 168.246094 147.484375 168.304688 C 146.351562 165.894531 145.992188 163.652344 145.988281 161.773438 C 145.988281 160.289062 146.207031 159.035156 146.445312 158.109375 C 147.390625 158.167969 148.316406 158.242188 149.210938 158.328125 C 148.964844 159.484375 148.898438 160.726562 148.9375 161.949219 C 149.015625 164.332031 149.503906 166.636719 149.871094 168.085938 Z M 149.875 168.085938 " fill-opacity="1" fill-rule="nonzero"/><path fill="#ebedea" d="M 144.886719 168.449219 C 143.871094 168.492188 142.832031 168.511719 141.773438 168.511719 C 141.222656 168.511719 140.675781 168.503906 140.136719 168.492188 C 140.519531 167.128906 141.171875 164.402344 141.246094 161.585938 C 141.277344 160.367188 141.199219 159.125 140.941406 157.976562 C 141.214844 157.976562 141.496094 157.972656 141.773438 157.972656 C 142.511719 157.972656 143.242188 157.984375 143.964844 158.003906 C 143.730469 159.179688 143.679688 160.433594 143.730469 161.667969 C 143.851562 164.515625 144.535156 167.222656 144.886719 168.449219 Z M 144.886719 168.449219 " fill-opacity="1" fill-rule="nonzero"/><path fill="#ebedea" d="M 154.796875 167.320312 C 153.996094 167.488281 153.152344 167.640625 152.261719 167.777344 C 151.445312 165.691406 151.1875 163.757812 151.199219 162.117188 C 151.210938 160.707031 151.417969 159.511719 151.648438 158.621094 C 152.605469 158.757812 153.511719 158.910156 154.367188 159.078125 C 154.167969 160.140625 154.113281 161.265625 154.152344 162.375 C 154.207031 164.179688 154.496094 165.9375 154.792969 167.320312 Z M 154.796875 167.320312 " fill-opacity="1" fill-rule="nonzero"/><path fill="#ebedea" d="M 162.339844 163.242188 C 162.339844 163.265625 162.339844 163.285156 162.335938 163.308594 C 162.277344 164.648438 160.257812 165.867188 156.984375 166.789062 C 156.554688 165.265625 156.40625 163.851562 156.414062 162.601562 C 156.421875 161.449219 156.5625 160.445312 156.734375 159.628906 C 160.210938 160.574219 162.339844 161.84375 162.339844 163.242188 Z M 162.339844 163.242188 " fill-opacity="1" fill-rule="nonzero"/><path fill="#ebedea" d="M 272.507812 151.675781 C 272.507812 151.675781 252.476562 151.675781 230.160156 153.199219 C 246.367188 155.027344 264.554688 153.324219 272.507812 151.675781 Z M 272.507812 151.675781 " fill-opacity="1" fill-rule="nonzero"/><path fill="#ebedea" d="M 274.457031 166 C 274.457031 166 274.78125 172.316406 268.902344 174.515625 C 273.160156 171.277344 274.457031 166 274.457031 166 Z M 274.457031 166 " fill-opacity="1" fill-rule="nonzero"/><path fill="#cc9966" d="M 251.3125 166.382812 L 201.089844 165.890625 L 206.371094 169.78125 Z M 251.3125 166.382812 " fill-opacity="1" fill-rule="nonzero"/><path fill="#1e1e1e" d="M 128.09375 159.3125 C 128.269531 159.984375 128.433594 160.839844 128.511719 161.835938 C 125.445312 162.046875 123.0625 162.339844 121.359375 162.597656 C 121.980469 161.296875 124.457031 160.140625 128.09375 159.3125 Z M 128.09375 159.3125 " fill-opacity="0.28" fill-rule="nonzero"/><path fill="#1e1e1e" d="M 133.203125 158.457031 C 133.425781 159.226562 133.664062 160.300781 133.738281 161.59375 C 132.714844 161.617188 131.742188 161.65625 130.820312 161.699219 C 130.800781 160.722656 130.703125 159.75 130.492188 158.839844 C 131.351562 158.695312 132.257812 158.566406 133.203125 158.457031 Z M 133.203125 158.457031 " fill-opacity="0.28" fill-rule="nonzero"/><path fill="#1e1e1e" d="M 138.433594 158.046875 C 138.679688 158.894531 138.925781 160.101562 138.96875 161.550781 C 137.957031 161.539062 136.976562 161.539062 136.035156 161.550781 C 136.035156 160.414062 135.933594 159.273438 135.667969 158.210938 C 136.5625 158.140625 137.488281 158.085938 138.433594 158.046875 Z M 138.433594 158.046875 " fill-opacity="0.28" fill-rule="nonzero"/><path fill="#1e1e1e" d="M 143.964844 158.007812 C 143.734375 159.183594 143.683594 160.4375 143.734375 161.671875 C 142.882812 161.636719 142.054688 161.613281 141.246094 161.589844 C 141.277344 160.367188 141.199219 159.128906 140.941406 157.980469 C 141.214844 157.976562 141.496094 157.976562 141.773438 157.976562 C 142.511719 157.976562 143.242188 157.988281 143.964844 158.007812 Z M 143.964844 158.007812 " fill-opacity="0.28" fill-rule="nonzero"/><path fill="#1e1e1e" d="M 149.210938 158.332031 C 148.964844 159.488281 148.898438 160.730469 148.9375 161.953125 C 147.929688 161.882812 146.945312 161.824219 145.988281 161.773438 C 145.988281 160.289062 146.203125 159.035156 146.441406 158.113281 C 147.390625 158.167969 148.3125 158.242188 149.207031 158.332031 Z M 149.210938 158.332031 " fill-opacity="0.28" fill-rule="nonzero"/><path fill="#1e1e1e" d="M 154.367188 159.078125 C 154.167969 160.140625 154.113281 161.265625 154.152344 162.375 C 153.144531 162.28125 152.160156 162.195312 151.199219 162.117188 C 151.210938 160.707031 151.417969 159.511719 151.648438 158.621094 C 152.605469 158.757812 153.511719 158.910156 154.367188 159.078125 Z M 154.367188 159.078125 " fill-opacity="0.28" fill-rule="nonzero"/><path fill="#1e1e1e" d="M 162.339844 163.242188 C 162.339844 163.265625 162.339844 163.285156 162.335938 163.308594 C 160.289062 163.035156 158.316406 162.800781 156.414062 162.597656 C 156.417969 161.449219 156.558594 160.441406 156.734375 159.628906 C 160.210938 160.570312 162.339844 161.84375 162.339844 163.242188 Z M 162.339844 163.242188 " fill-opacity="0.28" fill-rule="nonzero"/><path fill="#1e1e1e" d="M 160.046875 180.226562 C 160.046875 180.226562 139.382812 181.898438 119.042969 179.398438 C 148.917969 180.089844 160.046875 180.226562 160.046875 180.226562 Z M 160.046875 180.226562 " fill-opacity="1" fill-rule="nonzero"/><path fill="#1e1e1e" d="M 162.613281 178.316406 C 162.613281 178.316406 140.21875 179.992188 118.171875 177.488281 C 150.550781 178.179688 162.613281 178.316406 162.613281 178.316406 Z M 162.613281 178.316406 " fill-opacity="1" fill-rule="nonzero"/><path fill="#1e1e1e" d="M 161.234375 176.4375 C 161.234375 176.4375 139.972656 178.023438 119.042969 175.652344 C 149.785156 176.308594 161.234375 176.4375 161.234375 176.4375 Z M 161.234375 176.4375 " fill-opacity="1" fill-rule="nonzero"/><path fill="#1e1e1e" d="M 201.101562 137.132812 C 201.101562 137.132812 178.457031 135.601562 165.109375 137.132812 C 178.160156 134.730469 194.34375 136.035156 201.101562 137.132812 Z M 201.101562 137.132812 " fill-opacity="1" fill-rule="nonzero"/><path fill="#ebedea" d="M 123.816406 157.003906 C 123.816406 157.003906 138.089844 150.757812 160.839844 157.003906 C 147.902344 151.765625 133.128906 151.875 123.816406 157.003906 Z M 123.816406 157.003906 " fill-opacity="1" fill-rule="nonzero"/></svg>